<svg xmlns="http://www.w3.org/2000/svg" width="48" height="88" viewBox="0 0 48 88" fill="none"><g id="Modo_de_isolamento" clip-path="url(#clip0_45_2901)"><path id="Vector" d="M14.7925 88C13.8336 87.4655 13.5659 86.6336 13.5762 85.5663C13.614 81.1267 13.5539 76.6872 13.6088 72.2477C13.6363 70.0391 12.8197 68.3616 11.0871 66.9969C5.22873 62.3803 1.6125 56.3596 0.348199 49.0085C-0.0120508 46.9185 -0.0549377 44.7374 0.0531373 42.613C0.157781 40.5694 1.31401 38.9228 2.7979 37.5203C3.06551 37.2677 3.27309 36.8105 3.27823 36.4444C3.31769 33.5242 3.2748 30.6024 3.30568 27.6805C3.34685 23.846 5.92006 20.998 9.68553 20.6731C11.8642 20.4858 13.7032 21.3263 15.2591 22.9058C18.6935 19.8774 22.1433 19.8395 25.5914 22.8525C30.7447 19.2878 33.8497 19.886 37.2995 25.1453C38.581 24.432 39.9431 23.9611 41.4441 24.0917C45.1427 24.4149 47.8617 27.146 47.8703 30.8739C47.8909 39.0913 47.9149 47.3138 47.6593 55.526C47.4963 60.7699 46.3092 65.8952 44.7481 70.9156C44.5732 71.4777 44.484 72.0878 44.4805 72.6774C44.4582 76.9742 44.4462 81.2694 44.484 85.5663C44.4942 86.6353 44.2249 87.4655 43.2677 88H14.7925ZM23.6392 38.8541C18.4791 38.8541 13.391 38.7991 8.30457 38.8747C5.37111 38.9194 3.28166 41.2328 3.30739 44.2217C3.35028 49.433 4.92509 54.1785 7.77792 58.508C9.35102 60.8953 11.3495 62.8925 13.6037 64.6405C15.4993 66.11 16.6452 68.0436 16.9334 70.4292C17.0415 71.323 16.9506 72.2408 16.9506 73.162H41.0393C41.0393 72.6533 41.005 72.1944 41.0496 71.7441C41.0942 71.292 41.1765 70.8366 41.312 70.4035C42.7771 65.7199 43.8081 60.9435 44.1958 56.0485C44.3982 53.4961 44.4411 50.9317 44.5629 48.2144C42.5232 49.2285 40.6224 49.4416 38.6616 48.7077C36.682 47.9669 35.3765 46.5283 34.5514 44.6085C31.2216 46.4166 28.2727 45.9439 25.6377 43.4655C24.8074 44.3885 24.0801 45.3527 23.1915 46.1364C22.3131 46.9116 21.2736 47.5063 20.1842 48.2625C20.3764 48.3949 20.5359 48.4756 20.6611 48.5925C22.1914 50.0208 23.1417 51.7808 23.6255 53.8072C23.8588 54.7852 23.4231 55.6394 22.5362 55.9453C21.6544 56.2495 20.795 55.8199 20.4107 54.8745C20.3043 54.6099 20.2134 54.3383 20.1345 54.0633C19.697 52.5474 18.8153 51.358 17.5458 50.4367C16.0036 49.3178 14.2487 49.1047 12.4131 49.146C11.0133 49.1786 10.1899 48.5238 10.1744 47.4547C10.159 46.3822 10.991 45.7222 12.372 45.7153C13.3446 45.7102 14.3156 45.7342 15.2883 45.7085C19.474 45.6002 22.8981 42.8055 23.6409 38.8489L23.6392 38.8541ZM40.9998 76.7164H17.0912V84.5178H40.9998V76.7164ZM34.1774 33.2097C34.1774 31.405 34.186 29.602 34.1757 27.7974C34.1637 25.6128 32.7518 24.078 30.7653 24.0677C28.7856 24.0574 27.3275 25.6042 27.3206 27.763C27.3086 31.3706 27.3086 34.9783 27.3206 38.586C27.3275 40.7413 28.7942 42.2881 30.7739 42.2744C32.7209 42.2589 34.1585 40.7292 34.1757 38.6203C34.1911 36.8174 34.1791 35.0127 34.1791 33.208L34.1774 33.2097ZM44.4702 36.6644C44.4702 34.803 44.4874 32.9416 44.4651 31.0802C44.4411 29.0245 43.0018 27.5241 41.0753 27.5052C39.1265 27.4845 37.6255 29.0142 37.6152 31.0974C37.5963 34.7617 37.598 38.4278 37.6152 42.0922C37.6255 44.1856 39.1008 45.717 41.0496 45.7119C42.9966 45.7067 44.4496 44.1753 44.4685 42.0767C44.4857 40.2738 44.4719 38.4691 44.4719 36.6644H44.4702ZM13.5694 35.4527C13.5694 32.5875 13.6397 29.8702 13.5436 27.1597C13.4819 25.3911 11.8899 24.0574 10.1401 24.0677C8.35432 24.078 6.86701 25.4702 6.75207 27.2869C6.70061 28.0861 6.73148 28.8888 6.73148 29.6914C6.72977 31.6336 6.73148 33.5741 6.73148 35.4527H13.5711H13.5694ZM23.8828 35.3736C23.8828 32.713 23.9051 30.14 23.8759 27.567C23.8519 25.5406 22.3423 24.047 20.4158 24.0677C18.5322 24.09 17.0621 25.5802 17.0329 27.5602C17.002 29.621 17.0243 31.6817 17.0243 33.7425C17.0243 34.277 17.0243 34.8099 17.0243 35.3736H23.8845H23.8828Z" fill="white"></path><path id="Vector_2" d="M26.1147 0C27.0703 0.534531 27.3482 1.36125 27.331 2.42859C27.2864 5.48625 27.3344 8.54562 27.295 11.605C27.2881 12.1155 27.132 12.6964 26.8507 13.1141C26.4596 13.6967 25.8025 13.872 25.0975 13.6383C24.3289 13.3822 23.9361 12.8116 23.9001 12.033C23.8572 11.1203 23.8846 10.2042 23.8829 9.28984C23.8829 7.00219 23.9189 4.71453 23.8675 2.42859C23.8435 1.35953 24.1282 0.532812 25.0837 0H26.113L26.1147 0Z" fill="white"></path><path id="Vector_3" d="M7.19816 2.78088C7.81917 3.15729 8.31665 3.34463 8.66318 3.68495C10.9842 5.96573 13.2812 8.26885 15.5697 10.584C16.4154 11.4382 16.4737 12.4489 15.7841 13.1724C15.0671 13.9253 14.0258 13.8806 13.1371 13.0006C10.8281 10.7095 8.53623 8.39948 6.24093 6.0912C5.65252 5.49823 5.31286 4.75573 5.77603 4.00979C6.08482 3.51307 6.69038 3.2037 7.19816 2.78088Z" fill="white"></path><path id="Vector_4" d="M46.8582 5.5842C46.4774 6.21841 46.2801 6.74091 45.925 7.10529C43.6503 9.43248 41.3499 11.7339 39.0391 14.025C38.1917 14.8654 37.1675 14.9136 36.4556 14.214C35.7385 13.5094 35.7643 12.4695 36.5963 11.6256C38.9002 9.2881 41.2281 6.97295 43.5508 4.65435C44.1169 4.0906 44.8323 3.75029 45.5528 4.17482C46.0571 4.47216 46.3899 5.0617 46.8565 5.58591L46.8582 5.5842Z" fill="white"></path><path id="Vector_5" d="M23.8713 61.184C23.873 62.0812 23.0684 62.8907 22.173 62.8924C21.2758 62.8924 20.4695 62.088 20.4678 61.1909C20.4661 60.2937 21.2689 59.4859 22.1661 59.4824C23.0616 59.4807 23.8696 60.2868 23.8713 61.184Z" fill="white"></path></g><defs><clipPath id="clip0_45_2901"><rect width="47.8824" height="88" fill="white"></rect></clipPath></defs></svg>