<svg xmlns="http://www.w3.org/2000/svg" width="74" height="74" viewBox="0 0 74 74" fill="none"><g id="Modo_de_isolamento" clip-path="url(#clip0_45_2907)"><path id="Vector" d="M74.0003 17.0547C73.8601 18.341 73.7445 19.6288 73.5754 20.9108C72.5044 29.0147 69.5705 36.3858 64.7605 42.9908C64.1419 43.8392 64.0075 44.5214 64.2691 45.5736C65.7736 51.6121 64.298 56.9193 59.9794 61.3853C57.1162 64.3468 54.1663 67.2229 51.2497 70.1309C50.3203 71.0574 49.5876 71.0501 48.6467 70.1107C45.1519 66.6217 41.6528 63.1371 38.1841 59.6235C37.7389 59.1726 37.3183 59.0526 36.7243 59.1379C34.2716 59.4934 31.8073 59.7781 29.3604 60.1669C28.4455 60.3129 27.7547 60.1004 27.1765 59.4168C26.9901 59.1971 26.8138 58.9673 26.5045 58.5829C26.2516 58.9355 26.1244 59.1769 25.9394 59.3619C22.2061 63.0894 18.4729 66.8154 14.7151 70.5197C14.3754 70.855 13.9057 71.1296 13.449 71.2539C12.8969 71.4028 12.3375 71.1267 12.1525 70.5862C12.0066 70.1569 12.0499 69.6251 12.1439 69.1669C12.1988 68.8981 12.5023 68.6683 12.722 68.45C16.4408 64.7428 20.1624 61.0385 23.8899 57.3399C24.0764 57.1549 24.3163 57.0234 24.4854 56.8991C21.9893 54.4103 19.6074 52.0342 17.0594 49.4904C16.9712 49.6335 16.8715 49.898 16.6908 50.0815C14.1514 52.6528 11.6033 55.2138 9.05233 57.772C8.83264 57.9917 8.60139 58.2114 8.34124 58.3791C7.7978 58.7303 7.06792 58.6335 6.61554 58.1883C6.15882 57.7388 6.04897 57.0104 6.39151 56.464C6.55628 56.2024 6.77596 55.9712 6.99421 55.7501C9.53796 53.1832 12.0832 50.6192 14.6356 48.0624C14.8206 47.8774 15.0634 47.7503 15.4276 47.4915C13.5444 46.4711 13.7091 45.0085 13.9895 43.4317C14.3465 41.4198 14.5402 39.379 14.8495 37.357C14.9492 36.7052 14.8133 36.2528 14.3277 35.7729C10.8648 32.3548 7.43358 28.9048 3.99518 25.4621C2.89964 24.3651 2.90253 23.7118 4.01253 22.6018C6.97831 19.6404 9.86749 16.5965 12.9316 13.7392C17.6086 9.37576 23.1022 8.14002 29.2506 9.95678C29.716 10.0941 30.0065 9.95678 30.349 9.70096C35.9756 5.4792 42.2223 2.58279 49.1019 1.13604C51.4491 0.643184 53.8585 0.450957 56.2389 0.11998C56.4745 0.0867383 56.7086 0.0419336 56.9428 0.00146484C58.5326 0.00146484 60.1224 0.00146484 61.7123 0.00146484C61.8987 0.0375977 62.0852 0.0939649 62.2731 0.104082C65.2533 0.270293 68.183 0.758809 71.0823 1.45256C71.7962 1.62311 72.3296 1.95842 72.4871 2.71432C72.8094 4.26369 73.1693 5.80729 73.4135 7.36822C73.6694 8.99854 73.8081 10.6462 73.9975 12.2852V17.0547H74.0003ZM59.5385 2.9051C56.012 2.93545 52.51 3.25486 49.0962 4.14807C33.348 8.27154 22.4128 17.8251 16.5665 33.0933C16.3844 33.5703 16.4538 33.8492 16.8108 34.2048C24.4839 41.8577 32.147 49.5208 39.797 57.1968C40.1583 57.5596 40.4416 57.6029 40.9114 57.4324C50.8927 53.8003 58.7219 47.4756 64.243 38.4294C70.614 27.9899 72.5651 16.7237 69.9983 4.71897C69.9014 4.26658 69.7237 4.10037 69.2771 3.9992C66.0699 3.27799 62.8208 2.94557 59.5385 2.90365V2.9051ZM14.1398 31.3373C16.9076 24.0052 21.2103 17.7123 27.1014 12.3473C22.7727 11.5654 18.918 12.343 15.7528 15.144C12.6208 17.9147 9.76343 20.9946 6.78753 23.9416C6.75718 23.972 6.75284 24.0269 6.77452 23.9691C9.23589 26.4319 11.6655 28.8629 14.1398 31.3387V31.3373ZM61.6501 46.9033C56.2837 52.7987 49.9735 57.1043 42.6992 59.849C45.1678 62.3161 47.6075 64.7529 50.1122 67.2562C53.065 64.2311 56.2288 61.2856 59.0356 58.0293C61.7152 54.9204 62.4292 51.1207 61.6501 46.9019V46.9033ZM34.7023 56.506C28.9586 50.7623 23.2034 45.0056 17.4944 39.2966C17.2704 40.9009 17.0117 42.6367 16.8021 44.3783C16.7703 44.6399 16.8888 45.0085 17.0724 45.1935C20.9718 49.1233 24.8872 53.0387 28.817 56.9395C28.9904 57.1115 29.3272 57.2344 29.5657 57.204C31.3275 56.9887 33.085 56.73 34.7037 56.5045L34.7023 56.506Z" fill="white"></path><path id="Vector_2" d="M0 72.1211C0.427813 71.6384 0.831055 71.1325 1.28488 70.6772C4.64813 67.2981 8.02148 63.9291 11.3934 60.5586C12.3733 59.5787 13.2015 59.4501 13.8822 60.1684C14.5427 60.865 14.404 61.644 13.4414 62.6066C10.0695 65.9771 6.70047 69.3504 3.32277 72.7151C2.86605 73.169 2.36164 73.5737 1.87891 74H0C0 73.3742 0 72.7469 0 72.1211Z" fill="white"></path><path id="Vector_3" d="M3.61223 62.5763C2.84477 62.5604 2.1857 61.8782 2.20449 61.1209C2.22184 60.3636 2.91848 59.6915 3.6657 59.7088C4.43028 59.7262 5.07778 60.4055 5.06332 61.1744C5.04887 61.9476 4.38258 62.5922 3.61223 62.5763Z" fill="white"></path><path id="Vector_4" d="M54.6732 19.3268C49.9138 20.603 45.2989 21.8402 40.684 23.0774C40.632 23.1511 40.58 23.2248 40.5279 23.2985C41.1263 23.8333 41.7463 24.3463 42.3187 24.9071C43.2567 25.8263 43.2538 26.5765 42.3303 27.5058C40.2909 29.5538 38.2458 31.596 36.1978 33.6354C36.0113 33.8204 35.8076 33.9981 35.5835 34.1326C35.0329 34.4606 34.2987 34.3508 33.8622 33.9028C33.4257 33.4547 33.3317 32.7147 33.6801 32.1756C33.8477 31.9154 34.0674 31.6842 34.2871 31.4645C36.0215 29.7272 37.7602 27.9958 39.5553 26.2065C38.6852 25.3393 37.8483 24.5126 37.0202 23.6786C35.8249 22.4747 36.1299 21.3025 37.766 20.8631C43.8493 19.2285 49.934 17.5982 56.0203 15.9751C57.5523 15.5661 58.4238 16.4564 58.0119 18.0014C56.396 24.0645 54.7758 30.1276 53.1528 36.1892C52.7004 37.8774 51.5354 38.1939 50.3069 36.9639C49.4918 36.1473 48.694 35.3148 47.8485 34.4491C47.597 34.6832 47.4047 34.8538 47.2241 35.0344C44.0545 38.1997 40.8864 41.3678 37.7168 44.5345C36.7383 45.5115 35.9058 45.643 35.2294 44.9319C34.5747 44.2425 34.7178 43.4476 35.6703 42.4937C39.2286 38.9324 42.787 35.3726 46.3468 31.8128C47.4452 30.7144 48.126 30.7086 49.2085 31.7897C49.7346 32.3158 50.2549 32.8477 50.8778 33.4764C52.1526 28.7242 53.3956 24.0963 54.6732 19.3297V19.3268Z" fill="white"></path><path id="Vector_5" d="M31.505 37.7197C31.4992 38.4771 30.8271 39.1564 30.0857 39.1564C29.3066 39.1564 28.5999 38.4381 28.6288 37.6764C28.6577 36.9248 29.3471 36.2701 30.0958 36.2816C30.8603 36.2932 31.5107 36.9566 31.5035 37.7197H31.505Z" fill="white"></path></g><defs><clipPath id="clip0_45_2907"><rect width="74" height="74" fill="white"></rect></clipPath></defs></svg>