<svg xmlns="http://www.w3.org/2000/svg" width="71" height="71" viewBox="0 0 71 71" fill="none"><g id="Modo_de_isolamento" clip-path="url(#clip0_45_2894)"><path id="Vector" d="M62.8184 71H43.8203C43.0253 70.5951 42.2136 70.216 41.4389 69.776C40.3165 69.14 39.2312 68.4355 38.1033 67.8087C37.7372 67.6053 37.2861 67.4592 36.8738 67.4556C33.2979 67.4278 29.7202 67.4445 26.1443 67.4334C25.7615 67.4334 25.5341 67.5406 25.3141 67.8827C24.3415 69.3933 22.9215 70.0127 21.1613 69.7316C20.5678 69.6373 20.0076 69.3359 19.3826 69.1122C18.7836 70.1476 17.7722 70.6598 16.6425 70.9982H15.2558C13.7396 70.5636 12.5859 69.6983 12.0238 68.1508C10.833 68.7036 9.68854 68.7979 8.53294 68.3301C7.36255 67.8568 6.60633 66.9656 6.15148 65.8211C6.01836 65.8488 5.94625 65.8525 5.88708 65.8802C3.25417 67.0876 0.634193 65.2664 0.129427 63.0458C0.110938 62.9644 0.044375 62.8942 0 62.8184C0 56.4857 0 50.153 0 43.8203C0.404922 43.0234 0.778412 42.2099 1.21846 41.4333C1.85451 40.311 2.56081 39.2275 3.1876 38.1015C3.39099 37.7354 3.53891 37.2861 3.5426 36.8719C3.57034 33.2979 3.55185 29.722 3.56849 26.148C3.57034 25.7209 3.40948 25.5064 3.06557 25.2753C1.60859 24.2935 0.983646 22.8975 1.26839 21.1632C1.36638 20.5697 1.66406 20.0094 1.88594 19.3882C0.86901 18.7706 0.338359 17.7703 0 16.6406V15.2539C0.432656 13.7341 1.29797 12.5803 2.84924 12.0275C2.29086 10.8294 2.19841 9.68669 2.66805 8.52925C3.14323 7.35885 4.03628 6.60633 5.17708 6.14779C5.1475 6.01466 5.1438 5.94255 5.11607 5.88339C3.9124 3.27081 5.71698 0.634193 7.95237 0.127578C8.03372 0.109089 8.10583 0.042526 8.18164 0C14.5143 0 20.847 0 27.1797 0C27.9544 0.393828 28.7476 0.759922 29.502 1.18888C30.6446 1.83786 31.7485 2.55341 32.8967 3.18945C33.2628 3.39284 33.7139 3.53891 34.1262 3.5426C37.7021 3.57034 41.278 3.55 44.8557 3.56849C45.2847 3.57034 45.4973 3.40578 45.7247 3.06188C46.627 1.68995 47.9305 1.04281 49.5613 1.24065C50.2473 1.32385 50.9037 1.62893 51.6359 1.85081C52.2257 0.867162 53.2315 0.342057 54.3594 0H55.7461C57.2622 0.436354 58.4141 1.30167 58.9799 2.85479C60.1707 2.27792 61.3152 2.20396 62.4689 2.6699C63.6393 3.14323 64.3974 4.03258 64.8393 5.16414C64.9613 5.1512 65.0094 5.1549 65.0501 5.1401C67.8106 4.14906 69.9942 5.22885 70.8835 8.02448C70.902 8.08365 70.9612 8.13172 71 8.18349V27.1815C70.5951 27.9766 70.216 28.7883 69.7778 29.563C69.164 30.6446 68.4688 31.6819 67.8845 32.7783C67.6367 33.2424 67.4666 33.8101 67.4611 34.3333C67.4241 37.7927 67.4519 41.2521 67.4315 44.7115C67.4278 45.1996 67.5591 45.4844 67.9825 45.7691C69.3138 46.664 69.9627 47.9509 69.7575 49.5595C69.6706 50.2454 69.3692 50.9037 69.1473 51.6377C70.1439 52.222 70.6561 53.2352 71.0019 54.3594V55.7461C70.5655 57.2604 69.6983 58.4141 68.1526 58.9799C68.7165 60.1707 68.8034 61.3133 68.3338 62.4689C67.8605 63.6374 66.9711 64.3974 65.7952 64.8578C65.8581 65.0316 65.8969 65.1388 65.9357 65.2442C66.8288 67.6293 65.6732 70.0238 63.2455 70.8207C63.0994 70.8687 62.9607 70.9408 62.8184 71.0019V71ZM44.9204 5.92776C44.5858 5.92776 44.3325 5.92776 44.0792 5.92776C40.8435 5.92776 37.6078 5.91482 34.3721 5.93516C33.3219 5.94255 32.379 5.69479 31.4878 5.13271C30.199 4.31917 28.8937 3.52966 27.5606 2.79378C27.1205 2.54971 26.5714 2.38331 26.0722 2.38146C20.5253 2.35372 14.9803 2.36297 9.43339 2.36482C9.20227 2.36482 8.96745 2.34633 8.74188 2.38516C7.94497 2.52198 7.39398 2.96018 7.16471 3.75339C6.97982 4.38943 7.19984 5.16414 7.80445 5.51544C8.22047 5.75766 8.74927 5.89818 9.23185 5.91112C10.8719 5.95919 12.5138 5.91852 14.1538 5.93885C14.8823 5.9481 15.3685 6.43068 15.3815 7.08151C15.3926 7.7194 14.9063 8.22047 14.1963 8.28703C13.9892 8.30737 13.7803 8.29628 13.5732 8.29628C11.286 8.29628 8.99703 8.28888 6.70987 8.30182C5.56167 8.30922 4.72039 9.09133 4.73333 10.0916C4.74628 11.0956 5.52839 11.8074 6.67659 11.8185C8.20198 11.8333 9.72737 11.8222 11.2528 11.8241C11.4839 11.8241 11.7168 11.8148 11.9443 11.8481C12.6043 11.9461 13.0555 12.4749 13.0185 13.0814C12.9815 13.6823 12.5341 14.1205 11.8833 14.1778C11.654 14.1982 11.421 14.1908 11.1899 14.1908C8.92492 14.1908 6.65995 14.1815 4.39497 14.1963C3.16542 14.2055 2.34263 14.9581 2.37036 15.9972C2.39625 16.9938 3.24862 17.7389 4.40052 17.7482C5.80943 17.7592 7.22018 17.75 8.62909 17.7519C9.6682 17.7519 10.7092 17.7389 11.7483 17.7574C12.4953 17.7703 13.0241 18.2843 13.0185 18.9426C13.013 19.6064 12.4879 20.0852 11.7316 20.1111C11.5005 20.1185 11.2694 20.113 11.0383 20.113C9.16714 20.113 7.29414 20.1019 5.423 20.1185C4.36169 20.1278 3.61471 20.8304 3.57589 21.7918C3.53706 22.7477 4.22672 23.5188 5.25844 23.6519C5.5099 23.6833 5.76505 23.6778 6.02021 23.6778C10.1341 23.6778 14.2481 23.6778 18.3602 23.6778C18.5913 23.6778 18.8242 23.6667 19.0535 23.6944C19.9299 23.7942 20.3848 24.6817 19.9429 25.4435C19.8042 25.6802 19.6138 25.8891 19.4399 26.1036C18.5062 27.2499 17.554 28.3815 16.6388 29.5427C16.1192 30.2009 16.2024 31.0237 16.7738 31.5451C17.3358 32.0591 18.1623 32.048 18.7854 31.5063C18.9592 31.3546 19.1201 31.1864 19.2828 31.0237C22.9419 27.396 26.6084 23.7721 30.2582 20.1352C31.0551 19.3401 31.9796 18.9185 33.1056 18.9352C33.8211 18.9444 34.5385 18.9352 35.2541 18.9352C35.7736 18.9352 36.2932 18.9352 36.7074 18.9352C36.7554 18.1142 36.6796 17.3802 36.8571 16.7127C37.556 14.0909 40.727 13.1036 42.9439 14.7824C43.5947 15.2742 44.2141 15.8086 44.9241 16.3855V5.92591L44.9204 5.92776ZM26.0777 65.0704C26.4216 65.0704 26.6953 65.0704 26.9689 65.0704C30.2508 65.0704 33.5309 65.0759 36.8128 65.0667C37.7151 65.0648 38.5397 65.2738 39.3126 65.749C40.69 66.5939 42.0694 67.4389 43.4783 68.2266C43.898 68.4614 44.4249 68.6167 44.9038 68.6185C50.4488 68.6444 55.9957 68.6352 61.5426 68.6352C61.7737 68.6352 62.0067 68.6463 62.2359 68.6185C63.031 68.5224 63.6541 67.9659 63.8501 67.2004C64.0109 66.5717 63.765 65.7933 63.1586 65.4531C62.7573 65.2276 62.2526 65.1 61.7885 65.087C60.1263 65.0427 58.4604 65.0815 56.7982 65.0574C56.1103 65.0482 55.6444 64.5675 55.6185 63.9407C55.5945 63.3268 56.0475 62.8128 56.7113 62.7222C56.9165 62.6945 57.1254 62.7056 57.3344 62.7056C59.6455 62.7056 61.9567 62.713 64.2661 62.7C65.4235 62.6926 66.2648 61.9327 66.2685 60.9324C66.2722 59.9081 65.4716 59.1907 64.279 59.1815C62.7536 59.1704 61.2283 59.1796 59.7029 59.1778C58.575 59.1778 58.0037 58.7876 57.9815 58.0129C57.9575 57.2123 58.5362 56.8111 59.7158 56.8092C61.9567 56.8092 64.1995 56.824 66.4405 56.7963C66.8879 56.7908 67.3723 56.7057 67.7699 56.5134C68.4336 56.1917 68.7535 55.356 68.5871 54.6866C68.3726 53.8306 67.6497 53.2611 66.6956 53.2556C64.4085 53.2426 62.1195 53.25 59.8323 53.25C58.5769 53.25 57.9963 52.8839 57.9815 52.0852C57.9667 51.2642 58.5584 50.887 59.8637 50.887C61.7811 50.887 63.7003 50.9018 65.6177 50.8796C66.6383 50.8685 67.3705 50.1696 67.4241 49.2359C67.4759 48.2985 66.8306 47.5238 65.8414 47.3629C65.5696 47.3185 65.2886 47.3222 65.0131 47.3222C61.0156 47.3204 57.0182 47.3222 53.0189 47.3204C52.6731 47.3204 52.3237 47.3389 51.9798 47.3056C51.0682 47.2187 50.6041 46.2924 51.083 45.5158C51.2272 45.281 51.4214 45.0776 51.597 44.8631C52.5178 43.7353 53.4478 42.6166 54.3575 41.4795C54.7902 40.9378 54.8438 40.3313 54.4685 39.7397C54.1061 39.1683 53.5347 38.9502 52.9061 39.1332C52.5529 39.2367 52.2164 39.5011 51.9465 39.7674C48.3429 43.3192 44.7226 46.8582 41.1708 50.4636C40.0503 51.6007 38.8281 52.1832 37.2306 52.0741C36.2266 52.0057 35.2153 52.0611 34.2926 52.0611C34.2483 52.8636 34.3278 53.5995 34.1503 54.2669C33.4569 56.8943 30.2878 57.8946 28.0709 56.2213C27.4182 55.7276 26.797 55.1933 26.0759 54.609V65.0704H26.0777ZM65.0722 44.9149C65.0722 44.6283 65.0722 44.3806 65.0722 44.1328C65.0722 40.8287 65.0796 37.5246 65.0686 34.2205C65.0648 33.2942 65.2775 32.4492 65.7675 31.656C66.605 30.3007 67.4389 28.9436 68.2118 27.5513C68.4558 27.1113 68.6185 26.5621 68.6204 26.0629C68.6481 20.5179 68.6389 14.9729 68.637 9.42784C68.637 9.19672 68.6481 8.96375 68.6167 8.73633C68.5021 7.89875 67.8401 7.22388 67.0414 7.10925C66.3369 7.00755 65.5234 7.455 65.2571 8.15576C65.1296 8.49227 65.0833 8.875 65.0796 9.2374C65.0611 10.8552 65.0796 12.4712 65.0648 14.0891C65.0574 14.8675 64.586 15.3704 63.9129 15.3796C63.2492 15.387 62.7592 14.8767 62.7093 14.1186C62.6963 13.9338 62.7056 13.7489 62.7056 13.564C62.7056 11.299 62.713 9.03586 62.7019 6.77089C62.6963 5.56721 61.9309 4.71484 60.9065 4.73148C59.8785 4.74628 59.1907 5.53948 59.1833 6.745C59.1722 8.36284 59.1889 9.97883 59.1759 11.5967C59.1685 12.4675 58.6933 13.013 57.987 13.0148C57.2752 13.0167 56.8185 12.4842 56.8148 11.6004C56.8055 9.63677 56.8148 7.67318 56.8092 5.70958C56.8092 5.13271 56.8314 4.55029 56.7704 3.97896C56.6687 3.01935 55.8977 2.34633 55.0028 2.36852C54.1357 2.3907 53.3591 3.13398 53.2629 4.05107C53.2389 4.28034 53.25 4.51331 53.25 4.74443C53.25 7.07781 53.2574 9.4112 53.2445 11.7446C53.2408 12.4916 52.7212 13.0204 52.0611 13.0185C51.3992 13.0167 50.9166 12.4897 50.8889 11.7353C50.8815 11.5504 50.887 11.3655 50.887 11.1807C50.887 9.26328 50.8907 7.34591 50.8833 5.42854C50.8796 4.61315 50.5154 4.00669 49.7518 3.68497C49.1083 3.41503 48.2615 3.5537 47.8751 4.14906C47.57 4.62055 47.3537 5.2418 47.3444 5.80203C47.2927 8.75852 47.3204 11.7168 47.3204 14.6733C47.3204 16.0601 47.3167 17.4449 47.3204 18.8316C47.3204 19.366 47.1373 19.8634 46.6122 19.9688C46.2129 20.0483 45.7488 19.8892 45.3346 19.7672C45.1294 19.7062 44.9722 19.4917 44.7929 19.3457C43.702 18.4526 42.6203 17.5503 41.5184 16.6721C40.9489 16.2191 40.2444 16.1858 39.7138 16.55C39.1813 16.9161 38.9428 17.4523 39.124 18.0551C39.2367 18.4286 39.5104 18.7854 39.7914 19.0702C43.4228 22.757 47.056 26.4438 50.7188 30.0992C51.647 31.0255 52.1129 32.0665 52.0685 33.3755C52.0315 34.5238 52.0611 35.6757 52.0611 36.8701C52.2664 36.8405 52.3995 36.8257 52.5289 36.8035C54.8087 36.4041 56.8037 37.887 57.0515 40.1853C57.1716 41.3039 56.7889 42.2709 56.0752 43.1233C55.5982 43.6927 55.1359 44.2733 54.6127 44.9167H65.0704L65.0722 44.9149ZM5.92776 26.0814C5.92776 26.392 5.92776 26.6435 5.92776 26.8931C5.92776 30.1288 5.91297 33.3645 5.93701 36.6001C5.9444 37.6762 5.68925 38.6395 5.11237 39.5492C4.32102 40.7973 3.54445 42.0564 2.83445 43.3525C2.57005 43.8333 2.38516 44.4268 2.38146 44.9704C2.34818 50.4932 2.36112 56.0179 2.36297 61.5407C2.36297 61.794 2.35188 62.0529 2.3907 62.3025C2.51828 63.1345 3.20609 63.8039 4.00115 63.8945C4.73148 63.9777 5.55797 63.4692 5.78909 62.7389C5.89078 62.4153 5.92036 62.0584 5.92221 61.7145C5.93701 60.0967 5.91852 58.4789 5.93701 56.861C5.9444 56.1233 6.41034 55.6407 7.06302 55.6167C7.70276 55.5945 8.21307 56.0752 8.28518 56.7834C8.30737 56.9886 8.29443 57.1994 8.29443 57.4065C8.29443 59.7177 8.28518 62.0289 8.30182 64.3401C8.30922 65.442 9.09318 66.2648 10.0731 66.263C11.079 66.263 11.8056 65.479 11.8167 64.3364C11.8315 62.7888 11.8204 61.2394 11.8222 59.6918C11.8222 59.4607 11.8148 59.2258 11.8555 59.0003C11.9665 58.3735 12.4786 57.9519 13.0647 57.9796C13.6657 58.0074 14.1149 58.4548 14.176 59.1001C14.1982 59.3294 14.1908 59.5624 14.1908 59.7935C14.1908 62.1047 14.1741 64.4159 14.2018 66.7271C14.2166 67.8697 14.9877 68.6481 15.9805 68.6278C16.9531 68.6075 17.7297 67.7699 17.7445 66.6808C17.7629 65.2941 17.75 63.9074 17.75 62.5207C17.75 61.4113 17.7352 60.3019 17.7574 59.1926C17.7722 58.49 18.2899 57.9815 18.9259 57.9778C19.5638 57.9741 20.0649 58.4807 20.1074 59.1815C20.1204 59.3885 20.1111 59.5975 20.1111 59.8046C20.1111 61.746 20.0963 63.6874 20.1204 65.6288C20.1315 66.618 20.8119 67.3446 21.7086 67.4167C22.6442 67.4907 23.4429 66.862 23.6204 65.8821C23.6741 65.59 23.6759 65.2849 23.6759 64.9853C23.6796 60.9879 23.6778 56.9886 23.6778 52.9911C23.6778 52.8063 23.6852 52.6214 23.6778 52.4365C23.6519 51.8282 23.7277 51.2716 24.3693 50.985C25.0053 50.7003 25.4694 51.022 25.9335 51.4047C27.1261 52.3921 28.3223 53.3739 29.5279 54.3464C30.0715 54.7846 30.6779 54.8253 31.2677 54.4555C31.8409 54.0968 32.0554 53.5218 31.8705 52.8932C31.767 52.54 31.4989 52.2072 31.2326 51.9354C27.727 48.3817 24.2454 44.8021 20.6751 41.315C19.4178 40.0873 18.7836 38.7616 18.9259 37.0124C19.0017 36.0806 18.9389 35.1395 18.9389 34.1835C18.7688 34.1946 18.7022 34.1946 18.6375 34.2039C16.7016 34.4997 15.2132 33.8526 14.3757 32.3531C13.5492 30.8739 13.7618 29.2912 14.984 27.8028C15.4314 27.2573 15.8752 26.7101 16.391 26.0777H5.92961L5.92776 26.0814ZM21.3092 34.9638C21.3092 36.1989 21.2538 37.0365 21.3333 37.8611C21.374 38.2827 21.5533 38.7801 21.8417 39.074C25.2013 42.5094 28.5904 45.9152 31.9888 49.3136C32.1904 49.5151 32.538 49.6686 32.819 49.6741C34.4812 49.7074 36.1471 49.7259 37.8075 49.6667C38.2439 49.6501 38.7745 49.4448 39.0833 49.1435C42.5205 45.7858 45.9263 42.3966 49.3228 38.9964C49.5225 38.7967 49.6667 38.4454 49.6723 38.1607C49.7037 36.4984 49.724 34.8325 49.663 33.1722C49.6464 32.7377 49.4319 32.2107 49.1305 31.9019C45.7895 28.4814 42.417 25.0885 39.0315 21.7123C38.8041 21.4867 38.3992 21.3388 38.0719 21.3314C36.4781 21.2926 34.8843 21.3296 33.2905 21.3055C32.6933 21.2963 32.2421 21.4867 31.8169 21.912C29.0416 24.691 26.3144 27.5236 23.43 30.1861C21.8491 31.6449 20.7065 33.1038 21.3074 34.9675L21.3092 34.9638Z" fill="white"></path></g><defs><clipPath id="clip0_45_2894"><rect width="71" height="71" fill="white"></rect></clipPath></defs></svg>